<?xml version="1.0" encoding="UTF-8"?>
<svg width="343px" height="395px" viewBox="0 0 343 395" version="1.1" xmlns="http://www.w3.org/2000/svg" xmlns:xlink="http://www.w3.org/1999/xlink">
    <!-- Generator: Sketch 60 (88103) - https://sketch.com -->
    <title>unlock-monochrome</title>
    <desc>Created with Sketch.</desc>
    <g id="Page-1" stroke="none" stroke-width="1" fill="none" fill-rule="evenodd" opacity="0.402878534">
        <g id="Create-Account" transform="translate(-927.000000, -242.000000)">
            <g id="unlock-monochrome" transform="translate(927.000000, 244.000000)">
                <path d="M274.625456,118 C273.859131,119.922541 272.857014,121.216049 272.412636,122.846222 C271.995466,124.401088 272.054414,132.777876 272.262999,138.093659 C275.437125,143.050627 276.969774,150.240223 277.368807,158.120871 C277.917478,168.987217 285.530845,182.064043 285.530845,189.603594 C285.530845,194.502974 281.368206,202.857613 273.922613,205.63068 C276.353087,224.297937 273.169892,246.030629 272,247.651943 C273.52358,254.296671 277.364273,275.843311 280.479451,293 C298.322573,272.622833 311.173248,249.392862 317.467087,224.408682 C326.259416,189.320086 322.092242,150.78952 306.434732,122.261486 L274.625456,118 Z" id="Path" fill="#F1F1F1" fill-rule="nonzero"></path>
                <path d="M312.976897,362.167395 C311.309724,359.895646 286.823117,321.878444 285.282794,316.067409 C283.873852,310.747322 275.016994,258.62207 272.498113,247.526653 C272.498113,247.526653 272.498113,247.526653 272.498113,247.526653 C271.179778,247.798906 268.212391,247.571285 264.397826,247 C252.401427,256.91268 254.970143,303.48576 255.844502,305.748582 C256.868364,308.426479 298.756091,368.23283 302.344137,371 C305.923123,371.008916 313.470706,365.452281 312.976897,362.167395 Z" id="Path" fill="#000000" fill-rule="nonzero"></path>
                <path d="M270.991718,247.972865 C262.617402,247.972865 233.14711,241.122599 229,237 C229.444969,245.938221 235.541043,296.70216 236.346437,303.930035 C237.209677,311.691005 250.536496,374.33407 251.715664,375.897815 C252.894831,377.461559 261.865405,377.123932 263.413897,376.34206 C264.962389,375.560188 260.388108,311.037964 260.388108,306.360058 C260.388108,301.908718 271.343243,262.441943 270.991718,247.972865 Z" id="Path" fill="#000000" fill-rule="nonzero"></path>
                <path d="M287.439782,96.3895659 C268.812371,80.1336634 243.013247,73.2231531 214,70 L214,104.119002 L219.263184,104.815308 C220.446381,103.063595 221.928777,101.723534 222.912507,101.692879 C223.696771,102.227152 224.598902,103.799315 225.4149,105.634235 L264.677983,110.819307 L264.677983,110.355103 C264.676778,109.398866 265.069469,108.48146 265.769414,107.805298 C266.469359,107.129136 267.419034,106.749788 268.408905,106.750952 L268.862237,106.750952 C269.852108,106.749788 270.801783,107.129136 271.501728,107.805298 C272.201673,108.48146 272.594365,109.398866 272.59316,110.355103 L272.59316,111.865956 L272.955825,111.909749 C273.141691,110.687928 273.409157,109.343488 274.841686,109.64128 C275.295018,109.728865 275.580618,111.003237 275.72115,112.26885 L304,116 C299.495937,108.720391 293.917184,102.11409 287.439782,96.3895659 L287.439782,96.3895659 Z" id="Path" fill="#F1F1F1" fill-rule="nonzero"></path>
                <path d="M229,111.209076 L227,111 C227.404418,111.976604 227.686973,112.981243 227.84375,114 C228.024671,113.025726 228.415573,112.082177 229,111.209076 Z" id="Path" fill="#F1F1F1" fill-rule="nonzero"></path>
                <path d="M265.081729,116.270168 L233.253566,112 C232.891906,114.884449 231.770573,117.62675 230,119.956835 C230.130683,123.33407 234.506324,156.783722 235.213816,158.719886 C235.754575,160.214002 240.657455,168.078008 242.874567,172.127153 C243.342155,172.058946 243.817457,172.058946 244.285046,172.127153 C245.244893,172.277449 247.349346,175.592797 249.300584,180 C250.570845,179.152735 251.995066,178.552483 253.495971,178.231814 L253.495971,167.180654 C247.99375,165.14724 243.956084,158.490021 243.956084,150.581811 C243.940058,147.755615 244.481764,144.953086 245.551323,142.328805 C245.349444,141.494591 245.248109,140.640012 245.249399,139.782617 C245.249399,134.504583 250.985949,130.888643 260.881836,130.888643 C261.917787,130.884348 262.951195,130.989574 263.964161,131.202496 C264.76178,126.698043 265.581931,122.087499 265.865829,120.916076 C266.523753,118.157707 264.518439,116.416044 265.081729,116.270168 Z" id="Path" fill="#F1F1F1" fill-rule="nonzero"></path>
                <path d="M228.671536,236.373093 C228.43563,236.172993 228.265657,235.908353 228.18328,235.612904 C226.628094,227.38863 230.592913,209.704218 237.225058,196.047477 C232.15262,191.157368 227.934631,185.26701 227.83065,184.226751 C227.749274,183.368759 228.282739,182.252925 229.186917,181.039289 C226.971681,177.309469 223.309761,168.702878 222.857672,166.417863 C222.342291,163.777204 221.049317,124.300689 221.049317,121.962328 C221.049317,119.623967 217.893736,113.751391 217.893736,110.230512 C217.89507,109.949341 217.916218,109.668599 217.957028,109.390303 L214.503069,108.945747 L214.503069,213.105066 C214.503069,215.748052 213.435046,218.282723 211.534078,220.151179 C209.633111,222.019636 207.05501,223.068731 204.367236,223.067552 L53.0576,223.067552 C50.3690399,223.065196 47.7916808,222.012098 45.8931264,220.140179 C43.9945721,218.268259 42.9305295,215.731039 42.9353294,213.087284 L42.9353294,77 C35.2046091,80.3475018 28.3916293,84.6507976 22.7676433,90.1810661 C-3.96889456,116.55209 -3.80614255,170.592238 6.23023116,225.770448 C16.3389391,280.935322 36.3303105,337.162682 76.4758054,358.519121 C116.6213,379.87556 176.753646,366.201038 224.222981,339.020924 C230.015747,335.69565 235.608086,332.173289 241,328.453843 C238.490907,316.504195 236.451986,306.226075 236.131002,303.349802 C235.317242,296.10355 229.128145,245.317547 228.671536,236.373093 Z" id="Path" fill="#F1F1F1" fill-rule="nonzero"></path>
                <path d="M260.864405,313 C260.864405,313.328467 260.864405,313.656934 260.900563,314 L261.135595,313.656934 L260.864405,313 Z" id="Path" fill="#F1F1F1" fill-rule="nonzero"></path>
                <rect id="Rectangle" stroke="#000000" stroke-width="1.75" stroke-linecap="round" stroke-linejoin="round" x="265" y="107" width="8" height="9" rx="4"></rect>
                <line x1="254" y1="178" x2="254" y2="167" id="Path" stroke="#000000" stroke-width="1.75" fill="#FAF9F9" stroke-linecap="round" stroke-linejoin="round"></line>
                <rect id="Rectangle" stroke="#283D3B" stroke-width="3" fill="#FAF9F9" stroke-linecap="round" stroke-linejoin="round" x="42" y="55" width="172" height="169" rx="15.694"></rect>
                <path d="M138.761135,131.799741 C143.592888,127.498399 145.208234,120.76124 142.829241,114.832804 C140.450248,108.904368 134.564616,105 128.006799,105 C121.448982,105 115.56335,108.904368 113.184358,114.832804 C110.805365,120.76124 112.420711,127.498399 117.252464,131.799741 L105,180 L151,180 L138.761135,131.799741 Z" id="Path" fill="#283D3B" fill-rule="nonzero" style="mix-blend-mode: luminosity;"></path>
                <path d="M74,54 C74.2734137,24.0978212 98.8174909,0 129,0 C159.182509,0 183.726586,24.0978212 184,54" id="Path" stroke="#283D3B" stroke-width="2.75" fill="#FAF9F9" stroke-linecap="round" stroke-linejoin="round"></path>
                <ellipse id="Oval" stroke="#000000" stroke-width="1.75" fill="#FAF9F9" stroke-linecap="round" stroke-linejoin="round" cx="258" cy="151.5" rx="13" ry="17.5"></ellipse>
                <path d="M237.420416,196.058169 C230.744513,209.609521 226.768925,227.168894 228.34373,235.343847 C229.151555,239.563746 267.337172,248.078586 273.173481,246.886773 C275.247504,244.14119 283.711513,178 255.791628,178 C253.641994,178.061306 251.559126,178.740176 249.805554,179.951042" id="Path" stroke="#000000" stroke-width="1.75" fill="#FAF9F9" stroke-linecap="round" stroke-linejoin="round"></path>
                <path d="M253.250448,200.785304 C256.719684,193.284077 247.155475,173.422475 244.747417,173.045661 C239.836067,172.278888 227.623448,181.370621 228.008918,185.191339 C228.144967,186.549622 235.51426,196.30297 242.520757,201" id="Path" stroke="#000000" stroke-width="1.75" fill="#FAF9F9" stroke-linecap="round" stroke-linejoin="round"></path>
                <polygon id="Rectangle" fill="#000000" fill-rule="nonzero" transform="translate(247.289637, 111.628150) rotate(7.780000) translate(-247.289637, -111.628150) " points="166.387877 109.523528 328.201192 109.180659 328.191397 113.732771 166.378083 114.075641"></polygon>
                <polygon id="Rectangle" fill="#000000" fill-rule="nonzero" transform="translate(170.787551, 110.287293) rotate(7.780000) translate(-170.787551, -110.287293) " points="165.853938 103.705446 175.749533 103.684478 175.721164 116.86914 165.825569 116.890108"></polygon>
                <polygon id="Rectangle" fill="#000000" fill-rule="nonzero" transform="translate(182.499505, 111.864203) rotate(7.780000) translate(-182.499505, -111.864203) " points="179.852272 105.277511 185.175108 105.266232 185.146739 118.450895 179.823903 118.462173"></polygon>
                <path d="M273.140362,142 C272.754287,139.867783 272.405424,124.415953 273.000817,122.234254 C273.59621,120.052555 275.205632,118.460139 275.926616,115.203335 C276.173146,114.083246 275.782419,110.205669 274.996314,110.043728 C273.303165,109.692857 273.205483,111.528183 272.982211,112.877688 C272.11703,117.479499 270.354109,116.638308 269.540095,116.530347 C268.726081,116.422387 265.930524,115.954559 265.014177,115.932067 C264.09783,115.909575 266.432887,117.731407 265.721207,120.641839 C265.163026,122.931498 262.539575,138.1854 262,140.681984 C263.958285,140.753957 273.140362,142 273.140362,142 Z" id="Path" stroke="#000000" stroke-width="1.75" fill="#FAF9F9" stroke-linecap="round" stroke-linejoin="round"></path>
                <polygon id="Rectangle" fill="#000000" fill-rule="nonzero" transform="translate(191.502328, 113.074864) rotate(7.780000) translate(-191.502328, -113.074864) " points="188.855095 106.488172 194.177931 106.476893 194.149562 119.661555 188.826726 119.672834"></polygon>
                <polygon id="Rectangle" fill="#000000" fill-rule="nonzero" transform="translate(180.600204, 107.313380) rotate(7.780000) translate(-180.600204, -107.313380) " points="166.351507 105.007454 194.858954 104.947049 194.848901 109.619305 166.341454 109.67971"></polygon>
                <path d="M332.621822,111.111439 C326.056027,110.216227 320.00751,114.812472 319.111605,121.377801 C318.2157,127.94313 322.811619,133.991747 329.377239,134.888241 C335.94286,135.784736 341.992275,131.189674 342.889463,124.62452 C343.32042,121.471 342.480677,118.275471 340.555035,115.741163 C338.629392,113.206855 335.77565,111.541447 332.621822,111.111439 Z M339.091656,124.104612 C338.644088,127.378608 336.268127,130.060559 333.071825,130.899712 C329.875524,131.738865 326.488441,130.569937 324.490175,127.938068 C322.491908,125.306199 322.276046,121.729775 323.943259,118.876695 C325.610471,116.023615 328.832375,114.455835 332.106405,114.904505 C336.575591,115.516957 339.702606,119.635473 339.091656,124.104612 L339.091656,124.104612 Z" id="Shape" fill="#000000" fill-rule="nonzero"></path>
                <polygon id="Path" stroke="#000000" stroke-width="1.75" fill="#FAF9F9" stroke-linecap="round" stroke-linejoin="round" points="311.901555 363 322 375.527256 310.158102 391.911437 299 392 309.130144 378.821805 303.573735 369.708658"></polygon>
                <polyline id="Path" stroke="#000000" stroke-width="1.75" fill="#FAF9F9" stroke-linecap="round" stroke-linejoin="round" points="262.310434 376 263 392 230 392 253.409178 382.430311 253.83734 376"></polyline>
                <path d="M229.212774,182 C227.01507,178.274003 223.382131,169.690904 222.93362,167.410949 C222.422318,164.776137 221.139577,125.38703 221.139577,123.053846 C221.139577,120.720663 218,114.852218 218,111.339135 C218,107.826053 221.614998,103.0621 223.453893,103 C225.418371,104.379506 228.145318,112.470241 228.270901,114.532847 C228.957122,110.097136 232.204342,109.076923 233.092393,109.076923 C233.980445,109.076923 233.863832,115.930095 230.186042,120.543234 C230.316111,123.932117 234.671152,157.497136 235.375314,159.439978 C235.913527,160.934812 240.793326,168.82594 243,172.893487" id="Path" stroke="#000000" stroke-width="1.75" stroke-linecap="round" stroke-linejoin="round"></path>
                <path d="M229.212774,182 C227.01507,178.274003 223.382131,169.690904 222.93362,167.410949 C222.422318,164.776137 221.139577,125.38703 221.139577,123.053846 C221.139577,120.720663 218,114.852218 218,111.339135 C218,107.826053 221.614998,103.0621 223.453893,103 C225.418371,104.379506 228.145318,112.470241 228.270901,114.532847 C228.957122,110.097136 232.204342,109.076923 233.092393,109.076923 C233.980445,109.076923 233.863832,115.930095 230.186042,120.543234 C230.316111,123.932117 234.671152,157.497136 235.375314,159.439978 C235.913527,160.934812 240.793326,168.82594 243,172.893487" id="Path" stroke="#000000" stroke-width="1.75" fill="#FAF9F9" stroke-linecap="round" stroke-linejoin="round"></path>
                <path d="M277.788211,157.747573 C277.049104,143.184466 272.396815,131 260.729816,131 C250.754147,131 245,134.609885 245,139.879082 C245,145.148279 248.44614,148.705207 254.06879,150.832304 C255.085215,149.563597 256.869767,149.150602 258.36418,149.838232 C259.858592,150.525862 260.663159,152.130197 260.30076,153.699843 C259.93836,155.269488 258.505924,156.384616 256.852909,156.383936 C256.701103,156.382443 256.549588,156.370646 256.399469,156.348632 C256.762221,160.152692 257.492258,161.282436 257.492258,165.015887 C257.492258,175.704325 255.619553,170.360106 255.619553,188.815534 C255.619553,199.945278 260.407874,206 269.222738,206 C279.883101,206 286,195.024713 286,189.111209 C285.963725,181.578111 278.336872,168.55075 277.788211,157.747573 Z" id="Path" fill="#000000" fill-rule="nonzero"></path>
                <path d="M254,151.146648 C254.495244,149.822184 255.661807,148.971384 256.942338,149.000736 C258.222869,149.030088 259.35745,149.933633 259.80401,151.279684 C260.250569,152.625735 259.918466,154.141074 258.96637,155.101714 C258.014274,156.062354 256.635438,156.273307 255.488632,155.633786" id="Path" stroke="#000000" stroke-width="1.75" stroke-linecap="round" stroke-linejoin="round"></path>
            </g>
        </g>
    </g>
</svg>